<svg width="715" height="657" viewBox="0 0 715 657" fill="none" xmlns="http://www.w3.org/2000/svg">
<mask id="path-1-inside-1_246_20" fill="white">
<path d="M142.118 212.763C121.399 212.547 101.125 218.772 84.0973 230.578C67.0696 242.383 54.1295 259.186 47.0654 278.665C40.0014 298.143 39.1623 319.335 44.664 339.311C50.1658 359.287 61.7368 377.061 77.7776 390.176L78.6863 389.065C62.8757 376.138 51.4708 358.619 46.0481 338.93C40.6253 319.241 41.4524 298.353 48.415 279.154C55.3777 259.955 68.132 243.393 84.9152 231.757C101.698 220.121 121.682 213.986 142.103 214.199L142.118 212.763Z"/>
</mask>
<path d="M142.118 212.763C121.399 212.547 101.125 218.772 84.0973 230.578C67.0696 242.383 54.1295 259.186 47.0654 278.665C40.0014 298.143 39.1623 319.335 44.664 339.311C50.1658 359.287 61.7368 377.061 77.7776 390.176L78.6863 389.065C62.8757 376.138 51.4708 358.619 46.0481 338.93C40.6253 319.241 41.4524 298.353 48.415 279.154C55.3777 259.955 68.132 243.393 84.9152 231.757C101.698 220.121 121.682 213.986 142.103 214.199L142.118 212.763Z" stroke="#65728C" stroke-width="2" mask="url(#path-1-inside-1_246_20)"/>
<mask id="path-2-inside-2_246_20" fill="white">
<path d="M299.956 91.8915C282.875 80.1636 262.572 74.0311 241.855 74.3417C221.137 74.6523 201.028 81.3906 184.306 93.6252C167.584 105.86 155.075 122.987 148.509 142.638C141.942 162.29 141.642 183.496 147.65 203.326L149.024 202.91C143.102 183.365 143.398 162.463 149.87 143.093C156.342 123.724 168.672 106.843 185.153 94.7838C201.635 82.7248 221.456 76.0832 241.876 75.7771C262.296 75.471 282.307 81.5154 299.143 93.075L299.956 91.8915Z"/>
</mask>
<path d="M299.956 91.8915C282.875 80.1636 262.572 74.0311 241.855 74.3417C221.137 74.6523 201.028 81.3906 184.306 93.6252C167.584 105.86 155.075 122.987 148.509 142.638C141.942 162.29 141.642 183.496 147.65 203.326L149.024 202.91C143.102 183.365 143.398 162.463 149.87 143.093C156.342 123.724 168.672 106.843 185.153 94.7838C201.635 82.7248 221.456 76.0832 241.876 75.7771C262.296 75.471 282.307 81.5154 299.143 93.075L299.956 91.8915Z" stroke="#65728C" stroke-width="2" mask="url(#path-2-inside-2_246_20)"/>
<mask id="path-3-inside-3_246_20" fill="white">
<path d="M299.956 91.8915C282.875 80.1636 262.572 74.0311 241.855 74.3417C221.137 74.6523 201.028 81.3906 184.306 93.6252C167.584 105.86 155.075 122.987 148.509 142.638C141.942 162.29 141.642 183.496 147.65 203.326L149.024 202.91C143.102 183.365 143.398 162.463 149.87 143.093C156.342 123.724 168.672 106.843 185.153 94.7838C201.635 82.7248 221.456 76.0832 241.876 75.7771C262.296 75.471 282.307 81.5154 299.143 93.075L299.956 91.8915Z"/>
</mask>
<path d="M299.956 91.8915C282.875 80.1636 262.572 74.0311 241.855 74.3417C221.137 74.6523 201.028 81.3906 184.306 93.6252C167.584 105.86 155.075 122.987 148.509 142.638C141.942 162.29 141.642 183.496 147.65 203.326L149.024 202.91C143.102 183.365 143.398 162.463 149.87 143.093C156.342 123.724 168.672 106.843 185.153 94.7838C201.635 82.7248 221.456 76.0832 241.876 75.7771C262.296 75.471 282.307 81.5154 299.143 93.075L299.956 91.8915Z" stroke="#65728C" stroke-width="2" mask="url(#path-3-inside-3_246_20)"/>
<mask id="path-4-inside-4_246_20" fill="white">
<path d="M543.254 145.797C544.179 125.098 538.652 104.623 527.436 87.2009C516.221 69.779 499.871 56.2711 480.645 48.5442C461.42 40.8174 440.27 39.2532 420.117 44.0677C399.964 48.8823 381.805 59.8379 368.148 75.4203L369.228 76.3665C382.688 61.0078 400.587 50.2095 420.45 45.464C440.314 40.7186 461.161 42.2603 480.11 49.8763C499.059 57.4922 515.175 70.8061 526.229 87.9779C537.284 105.15 542.732 125.331 541.819 145.733L543.254 145.797Z"/>
</mask>
<path d="M543.254 145.797C544.179 125.098 538.652 104.623 527.436 87.2009C516.221 69.779 499.871 56.2711 480.645 48.5442C461.42 40.8174 440.27 39.2532 420.117 44.0677C399.964 48.8823 381.805 59.8379 368.148 75.4203L369.228 76.3665C382.688 61.0078 400.587 50.2095 420.45 45.464C440.314 40.7186 461.161 42.2603 480.11 49.8763C499.059 57.4922 515.175 70.8061 526.229 87.9779C537.284 105.15 542.732 125.331 541.819 145.733L543.254 145.797Z" stroke="#65728C" stroke-width="2" mask="url(#path-4-inside-4_246_20)"/>
<mask id="path-5-inside-5_246_20" fill="white">
<path d="M661.023 311.437C674.647 295.827 683.086 276.37 685.173 255.755C687.261 235.141 682.893 214.387 672.674 196.362C662.455 178.338 646.889 163.933 628.129 155.138C609.368 146.343 588.339 143.593 567.947 147.267L568.202 148.68C588.301 145.058 609.028 147.769 627.519 156.438C646.011 165.106 661.353 179.305 671.425 197.07C681.497 214.836 685.802 235.292 683.745 255.611C681.688 275.929 673.37 295.107 659.941 310.493L661.023 311.437Z"/>
</mask>
<path d="M661.023 311.437C674.647 295.827 683.086 276.37 685.173 255.755C687.261 235.141 682.893 214.387 672.674 196.362C662.455 178.338 646.889 163.933 628.129 155.138C609.368 146.343 588.339 143.593 567.947 147.267L568.202 148.68C588.301 145.058 609.028 147.769 627.519 156.438C646.011 165.106 661.353 179.305 671.425 197.07C681.497 214.836 685.802 235.292 683.745 255.611C681.688 275.929 673.37 295.107 659.941 310.493L661.023 311.437Z" stroke="#65728C" stroke-width="2" mask="url(#path-5-inside-5_246_20)"/>
<path d="M575.707 362.684C575.707 482.178 478.01 579.684 356.707 579.684C235.404 579.684 137.707 482.178 137.707 362.684C137.707 243.189 235.404 145.684 356.707 145.684C478.01 145.684 575.707 243.189 575.707 362.684Z" stroke="url(#paint0_linear_246_20)" stroke-width="100"/>
<g filter="url(#filter0_dd_246_20)">
<circle cx="134.707" cy="188.684" r="47" fill="#292929"/>
</g>
<g filter="url(#filter1_dd_246_20)">
<circle cx="65.8704" cy="401.233" r="47" transform="rotate(-33.8753 65.8704 401.233)" fill="#292929"/>
</g>
<g clip-path="url(#clip0_246_20)">
<path d="M102 401.5C102 381.894 86.1061 366 66.5 366C46.8939 366 31 381.894 31 401.5C31 421.106 46.8939 437 66.5 437C86.1061 437 102 421.106 102 401.5Z" fill="#3178C6"/>
<path fill-rule="evenodd" clip-rule="evenodd" d="M69.9566 410.572V417.514C71.0705 418.093 72.3879 418.527 73.9088 418.816C75.4297 419.105 77.0327 419.25 78.7178 419.25C80.36 419.25 81.9202 419.091 83.3982 418.773C84.8763 418.455 86.1722 417.93 87.2864 417.2C88.4002 416.47 89.2816 415.515 89.9317 414.336C90.5812 413.158 90.9062 411.701 90.9062 409.965C90.9062 408.707 90.7204 407.604 90.3493 406.657C89.9783 405.709 89.4424 404.867 88.743 404.129C88.043 403.392 87.2043 402.73 86.2258 402.144C85.2475 401.559 84.1444 401.006 82.9163 400.485C82.0166 400.109 81.2098 399.744 80.4957 399.389C79.7817 399.035 79.1748 398.673 78.6749 398.305C78.1751 397.936 77.7896 397.545 77.5182 397.133C77.2469 396.721 77.1112 396.255 77.1112 395.734C77.1112 395.257 77.2326 394.826 77.4754 394.443C77.7182 394.06 78.0609 393.731 78.5035 393.456C78.9462 393.181 79.489 392.968 80.1316 392.816C80.7742 392.664 81.4882 392.588 82.2736 392.588C82.8449 392.588 83.4482 392.632 84.0837 392.719C84.7192 392.805 85.3583 392.939 86.0009 393.12C86.6435 393.301 87.2681 393.528 87.8754 393.803C88.4823 394.078 89.0425 394.396 89.5567 394.758V388.271C88.5144 387.866 87.3751 387.566 86.1401 387.371C84.9048 387.176 83.4875 387.078 81.8881 387.078C80.2601 387.078 78.7178 387.255 77.2612 387.61C75.8046 387.964 74.5229 388.517 73.4161 389.269C72.3094 390.021 71.4347 390.979 70.7921 392.144C70.1495 393.308 69.8281 394.7 69.8281 396.32C69.8281 398.388 70.4172 400.152 71.5954 401.613C72.7735 403.074 74.5621 404.31 76.9613 405.323C77.9038 405.713 78.7821 406.096 79.5961 406.472C80.41 406.848 81.1133 407.239 81.706 407.644C82.2986 408.049 82.7663 408.49 83.1091 408.967C83.4518 409.444 83.6231 409.987 83.6231 410.594C83.6231 411.043 83.516 411.458 83.3018 411.842C83.0877 412.225 82.7628 412.557 82.3272 412.839C81.8916 413.122 81.349 413.342 80.6992 413.501C80.0495 413.66 79.289 413.74 78.4179 413.74C76.9327 413.74 75.4618 413.476 74.0052 412.948C72.5486 412.42 71.1991 411.628 69.9566 410.572ZM58.0994 393.33H67.0547V387.633H42.0938V393.33H51.0052V418.695H58.0994V393.33Z" fill="white"/>
</g>
<path d="M128.112 191.74C128.112 191.74 126.201 192.904 129.442 193.237C133.357 193.735 135.427 193.652 139.749 192.821C139.749 192.821 140.912 193.57 142.492 194.151C132.766 198.307 120.465 193.902 128.112 191.74ZM126.865 186.338C126.865 186.338 124.787 187.917 128.029 188.249C132.267 188.665 135.593 188.748 141.328 187.586C141.328 187.586 142.077 188.417 143.323 188.832C131.604 192.323 118.47 189.163 126.865 186.338ZM149.807 195.814C149.807 195.814 151.219 196.977 148.227 197.892C142.658 199.554 124.87 200.054 119.883 197.892C118.139 197.143 121.463 196.062 122.543 195.897C123.624 195.648 124.205 195.648 124.205 195.648C122.293 194.317 111.487 198.391 118.719 199.563C138.585 202.805 154.96 198.15 149.806 195.822L149.807 195.814ZM129.026 180.685C129.026 180.685 119.966 182.847 125.784 183.594C128.277 183.926 133.181 183.843 137.753 183.511C141.493 183.179 145.242 182.513 145.242 182.513C145.242 182.513 143.912 183.095 142.998 183.677C133.764 186.089 116.059 185.009 121.13 182.515C125.453 180.437 129.026 180.685 129.026 180.685ZM145.234 189.746C154.545 184.924 150.221 180.27 147.229 180.852C146.48 181.018 146.148 181.184 146.148 181.184C146.148 181.184 146.397 180.685 146.979 180.52C152.881 178.442 157.536 186.754 145.068 189.996C145.068 189.996 145.151 189.911 145.234 189.746ZM129.94 202.877C138.917 203.46 152.632 202.546 152.965 198.306C152.965 198.306 152.301 199.968 145.567 201.214C137.921 202.627 128.444 202.461 122.876 201.546C122.876 201.546 124.039 202.544 129.941 202.877L129.94 202.877Z" fill="#4E7896"/>
<path d="M139.574 153.255C139.574 153.255 144.727 158.492 134.67 166.387C126.607 172.787 132.841 176.445 134.67 180.6C129.933 176.362 126.526 172.62 128.852 169.129C132.268 163.979 141.659 161.485 139.574 153.255ZM136.915 177.111C139.325 179.854 136.251 182.347 136.251 182.347C136.251 182.347 142.401 179.19 139.576 175.282C136.999 171.541 135.004 169.712 145.81 163.477C145.81 163.477 128.77 167.716 136.916 177.109L136.915 177.111Z" fill="#F58219"/>
<path d="M132.625 220.672V212.528C132.625 210.449 131.462 209.037 128.552 209.037C126.89 209.037 125.477 209.452 124.229 209.951L124.644 211.447C125.558 211.115 126.723 210.783 127.969 210.783C129.549 210.783 130.297 211.447 130.297 212.778V213.859H129.465C125.476 213.859 123.647 215.355 123.647 217.774C123.647 219.769 124.894 220.931 127.138 220.931C128.551 220.931 129.631 220.267 130.629 219.435L130.795 220.682H132.625L132.625 220.672ZM130.298 218.013C129.466 218.762 128.553 219.176 127.721 219.176C126.64 219.176 125.976 218.512 125.976 217.346C125.976 216.18 126.64 215.351 129.301 215.351H130.298V218.011V218.013ZM140.438 220.672H137.529L134.038 209.285H136.532L138.694 216.267L139.192 218.346C140.273 215.353 141.104 212.277 141.437 209.285H143.93C143.266 213.026 142.1 217.098 140.438 220.672ZM153.904 220.672V212.528C153.904 210.449 152.74 209.037 149.831 209.037C148.168 209.037 146.755 209.452 145.507 209.951L145.839 211.447C146.837 211.115 148.001 210.783 149.247 210.783C150.826 210.783 151.574 211.447 151.574 212.778V213.859H150.743C146.753 213.859 144.924 215.355 144.924 217.774C144.924 219.769 146.088 220.931 148.332 220.931C149.828 220.931 150.909 220.267 151.906 219.435L152.072 220.682H153.902L153.904 220.672ZM151.576 218.013C150.745 218.762 149.831 219.176 148.999 219.176C147.918 219.176 147.254 218.512 147.254 217.346C147.254 216.18 147.918 215.351 150.58 215.351H151.577V218.011L151.576 218.013ZM121.072 222.583C120.408 223.58 119.41 224.328 118.163 224.745L117.083 223.414C117.914 222.916 118.745 222.168 119.077 221.503C119.409 220.921 119.493 220.09 119.493 218.178V205.213H121.986V218.013C121.986 220.59 121.737 221.587 121.072 222.585V222.583Z" fill="#4E7896"/>
<g filter="url(#filter2_dd_246_20)">
<circle cx="320.707" cy="74.6838" r="47" fill="#292929"/>
</g>
<g filter="url(#filter3_dd_246_20)">
<circle cx="663" cy="316" r="47" fill="#292929"/>
</g>
<g filter="url(#filter4_dd_246_20)">
<circle cx="534.707" cy="121.684" r="47" fill="#292929"/>
</g>
<path d="M336.734 89.9913C337.141 86.5988 337.019 86.1038 339.544 86.6513L340.186 86.7088C342.129 86.7963 344.669 86.3963 346.186 85.7038C349.399 84.2138 351.304 81.7238 348.136 82.3788C340.911 83.8688 340.386 81.4213 340.386 81.4213C348.019 70.0963 351.211 55.7213 348.454 52.2038C340.944 42.6038 327.941 47.1438 327.724 47.2638L327.654 47.2763C326.229 46.9763 324.654 46.8013 322.829 46.7763C319.559 46.7263 317.079 47.6338 315.194 49.0613C315.194 49.0613 292.001 39.5063 293.079 61.0788C293.309 65.6688 299.654 95.8288 307.229 86.7038C310.001 83.3688 312.676 80.5513 312.676 80.5513C314.001 81.4338 315.594 81.8838 317.261 81.7213L317.391 81.6113C317.353 82.0434 317.371 82.4787 317.444 82.9063C315.494 85.0863 316.069 85.4688 312.169 86.2713C308.224 87.0838 310.544 88.5313 312.054 88.9113C313.889 89.3713 318.134 90.0213 321.004 86.0063L320.889 86.4638C321.654 87.0763 321.601 90.8638 321.714 93.5688C321.826 96.2738 322.004 98.8013 322.556 100.289C323.109 101.776 323.756 105.614 328.881 104.539C333.164 103.621 336.439 102.299 336.739 90.0138" fill="black"/>
<path d="M336.734 89.9913C337.141 86.5988 337.019 86.1038 339.544 86.6513L340.186 86.7088C342.129 86.7963 344.669 86.3963 346.186 85.7038C349.399 84.2138 351.304 81.7238 348.136 82.3788C340.911 83.8688 340.386 81.4213 340.386 81.4213C348.019 70.0963 351.211 55.7213 348.454 52.2038C340.944 42.6038 327.941 47.1438 327.724 47.2638L327.654 47.2763C326.229 46.9763 324.654 46.8013 322.829 46.7763C319.559 46.7263 317.079 47.6338 315.194 49.0613C315.194 49.0613 292.001 39.5063 293.079 61.0788C293.309 65.6688 299.654 95.8288 307.229 86.7038C310.001 83.3688 312.676 80.5513 312.676 80.5513C314.001 81.4338 315.594 81.8838 317.261 81.7213L317.391 81.6113C317.353 82.0434 317.371 82.4787 317.444 82.9063C315.494 85.0863 316.069 85.4688 312.169 86.2713C308.224 87.0838 310.544 88.5313 312.054 88.9113C313.889 89.3713 318.134 90.0213 321.004 86.0063L320.889 86.4638C321.654 87.0763 321.601 90.8638 321.714 93.5688C321.826 96.2738 322.004 98.8013 322.556 100.289C323.109 101.776 323.756 105.614 328.881 104.539C333.164 103.621 336.439 102.299 336.739 90.0138" stroke="black" stroke-width="5.3725"/>
<path d="M348.114 82.4013C340.889 83.8913 340.364 81.4438 340.364 81.4438C347.996 70.1188 351.189 55.7438 348.434 52.2263C340.924 42.6263 327.921 47.1688 327.704 47.2863L327.634 47.2988C326.046 46.9801 324.431 46.8119 322.811 46.7963C319.541 46.7463 317.061 47.6538 315.176 49.0813C315.176 49.0813 291.981 39.5263 293.061 61.0988C293.291 65.6888 299.636 95.8488 307.211 86.7238C310.001 83.3688 312.676 80.5513 312.676 80.5513C314.001 81.4338 315.594 81.8838 317.261 81.7213L317.391 81.6113C317.353 82.0434 317.371 82.4787 317.444 82.9063C315.494 85.0863 316.069 85.4688 312.169 86.2713C308.224 87.0838 310.544 88.5313 312.054 88.9113C313.889 89.3713 318.134 90.0213 321.004 86.0063L320.889 86.4638C321.654 87.0763 322.189 90.4463 322.099 93.5013C322.009 96.5563 321.949 98.6513 322.549 100.291C323.149 101.931 323.749 105.616 328.874 104.541C333.156 103.624 335.374 101.241 335.686 97.2763C335.906 94.4563 336.401 94.8713 336.436 92.3513L336.836 91.1563C337.294 87.3313 336.911 86.0988 339.549 86.6738L340.191 86.7313C342.134 86.8188 344.676 86.4188 346.166 85.7263C349.379 84.2363 351.281 81.7463 348.114 82.4013Z" fill="#336791"/>
<path d="M321.312 84.5688C321.112 91.6838 321.362 98.8488 322.057 100.569C322.752 102.289 324.244 105.694 329.372 104.599C333.654 103.681 335.214 101.904 335.889 97.9813L337.472 85.4388M315.167 48.9013C315.167 48.9013 291.957 39.4113 293.037 60.9838C293.267 65.5738 299.612 95.7338 307.187 86.6088C309.952 83.2763 312.452 80.6688 312.452 80.6688M327.702 47.1688C326.902 47.4188 340.612 42.1563 348.407 52.1138C351.157 55.6313 347.969 70.0063 340.337 81.3313" stroke="white" stroke-width="1.79" stroke-linecap="round" stroke-linejoin="round"/>
<path d="M340.339 81.3263C340.339 81.3263 340.839 83.7763 348.089 82.2813C351.257 81.6263 349.349 84.1163 346.139 85.6063C343.504 86.8313 337.594 87.1438 337.497 85.4563C337.247 81.0938 340.607 82.4188 340.364 81.3263C340.144 80.3413 338.639 79.3763 337.649 76.9663C336.782 74.8663 325.749 58.7413 340.709 61.1338C341.259 61.0213 336.809 46.8838 322.809 46.6788C308.809 46.4738 309.252 63.8913 309.252 63.8913" stroke="white" stroke-width="1.79" stroke-linecap="round" stroke-linejoin="bevel"/>
<path d="M317.394 82.8213C315.444 85.0013 316.019 85.3838 312.119 86.1863C308.174 86.9988 310.494 88.4463 312.004 88.8263C313.839 89.2863 318.084 89.9363 320.954 85.9188C321.829 84.6938 320.949 82.7438 319.749 82.2488C319.169 82.0088 318.394 81.7088 317.399 82.8238L317.394 82.8213Z" stroke="white" stroke-width="1.79" stroke-linejoin="round"/>
<path d="M317.267 82.7838C317.067 81.5013 317.687 79.9788 318.349 78.1938C319.344 75.5188 321.639 72.8438 319.804 64.3513C318.437 58.0263 309.254 63.0338 309.254 63.8913C309.254 64.7488 309.669 68.2413 309.104 72.3038C308.362 77.6088 312.479 82.0938 317.219 81.6363" stroke="white" stroke-width="1.79" stroke-linecap="round" stroke-linejoin="round"/>
<path d="M315.082 63.7638C315.039 64.0563 315.619 64.8388 316.372 64.9438C317.124 65.0488 317.767 64.4388 317.809 64.1438C317.852 63.8488 317.272 63.5288 316.519 63.4238C315.767 63.3188 315.119 63.4738 315.082 63.7638Z" fill="white" stroke="white" stroke-width="0.5975"/>
<path d="M337.992 63.1663C338.032 63.4588 337.454 64.2413 336.702 64.3463C335.949 64.4513 335.302 63.8413 335.264 63.5463C335.227 63.2513 335.802 62.9313 336.554 62.8263C337.307 62.7213 337.954 62.8763 337.992 63.1663Z" fill="white" stroke="white" stroke-width="0.2975"/>
<path d="M340.682 61.1388C340.807 63.4388 340.187 65.0013 340.107 67.4488C339.992 71.0038 341.802 75.0738 339.074 79.1488" stroke="white" stroke-width="1.79" stroke-linecap="round" stroke-linejoin="round"/>
<path d="M663 349.609C662.068 349.609 661.199 349.36 660.391 348.925L652.13 344.019C650.888 343.335 651.509 343.087 651.882 342.963C653.559 342.404 653.87 342.28 655.609 341.286C655.795 341.161 656.043 341.224 656.23 341.348L662.565 345.137C662.814 345.261 663.124 345.261 663.311 345.137L688.093 330.789C688.342 330.665 688.466 330.416 688.466 330.106V301.472C688.466 301.161 688.342 300.913 688.093 300.789L663.311 286.503C663.062 286.379 662.752 286.379 662.565 286.503L637.783 300.789C637.534 300.913 637.41 301.224 637.41 301.472V330.106C637.41 330.354 637.534 330.665 637.783 330.789L644.553 334.702C648.217 336.565 650.516 334.391 650.516 332.217V303.957C650.516 303.584 650.826 303.211 651.261 303.211H654.429C654.801 303.211 655.174 303.522 655.174 303.957V332.217C655.174 337.124 652.503 339.981 647.845 339.981C646.416 339.981 645.298 339.981 642.13 338.429L635.609 334.702C633.994 333.77 633 332.031 633 330.168V301.534C633 299.671 633.994 297.932 635.609 297L660.391 282.652C661.944 281.783 664.056 281.783 665.609 282.652L690.391 297C692.006 297.932 693 299.671 693 301.534V330.168C693 332.031 692.006 333.77 690.391 334.702L665.609 349.05C664.801 349.422 663.87 349.609 663 349.609ZM670.64 329.919C659.77 329.919 657.534 324.95 657.534 320.727C657.534 320.354 657.845 319.981 658.28 319.981H661.509C661.882 319.981 662.193 320.23 662.193 320.602C662.689 323.894 664.118 325.509 670.702 325.509C675.919 325.509 678.155 324.329 678.155 321.534C678.155 319.919 677.534 318.739 669.398 317.932C662.627 317.248 658.404 315.758 658.404 310.354C658.404 305.323 662.627 302.342 669.708 302.342C677.658 302.342 681.571 305.075 682.068 311.037C682.068 311.224 682.006 311.41 681.882 311.596C681.758 311.72 681.571 311.845 681.385 311.845H678.155C677.845 311.845 677.534 311.596 677.472 311.286C676.727 307.87 674.801 306.752 669.708 306.752C663.994 306.752 663.311 308.739 663.311 310.23C663.311 312.031 664.118 312.59 671.82 313.584C679.46 314.578 683.062 316.006 683.062 321.348C683 326.814 678.528 329.919 670.64 329.919Z" fill="#539E43"/>
<path d="M534.634 127.763C537.79 127.763 540.349 125.204 540.349 122.048C540.349 118.892 537.79 116.333 534.634 116.333C531.478 116.333 528.919 118.892 528.919 122.048C528.919 125.204 531.478 127.763 534.634 127.763Z" fill="#00D8FF"/>
<path fill-rule="evenodd" clip-rule="evenodd" d="M534.634 110.428C542.307 110.428 549.436 111.529 554.81 113.38C561.286 115.609 565.267 118.988 565.267 122.048C565.267 125.237 561.048 128.827 554.094 131.131C548.836 132.872 541.918 133.782 534.634 133.782C527.166 133.782 520.095 132.928 514.778 131.111C508.051 128.812 504 125.176 504 122.048C504 119.013 507.802 115.66 514.186 113.434C519.581 111.553 526.885 110.428 534.633 110.428H534.634Z" stroke="#00D8FF" stroke-width="2.73408"/>
<path fill-rule="evenodd" clip-rule="evenodd" d="M524.519 116.272C528.352 109.625 532.867 104 537.155 100.268C542.321 95.7721 547.238 94.0114 549.888 95.5399C552.651 97.1328 553.652 102.582 552.174 109.757C551.058 115.181 548.388 121.628 544.749 127.938C541.019 134.408 536.747 140.107 532.517 143.804C527.165 148.483 521.991 150.176 519.281 148.613C516.652 147.098 515.647 142.129 516.908 135.486C517.974 129.873 520.648 122.984 524.518 116.271L524.519 116.272Z" stroke="#00D8FF" stroke-width="2.73408"/>
<path fill-rule="evenodd" clip-rule="evenodd" d="M524.529 127.955C520.684 121.316 518.067 114.594 516.975 109.015C515.659 102.294 516.589 97.1552 519.237 95.6223C521.997 94.0247 527.218 95.878 532.696 100.742C536.838 104.419 541.091 109.951 544.74 116.255C548.482 122.718 551.286 129.266 552.377 134.776C553.757 141.749 552.64 147.078 549.933 148.645C547.306 150.165 542.499 148.555 537.374 144.145C533.044 140.419 528.411 134.661 524.529 127.955V127.955Z" stroke="#00D8FF" stroke-width="2.73408"/>
<rect x="242" y="229" width="230" height="246" rx="20" fill="#F98848"/>
<g filter="url(#filter5_b_246_20)">
<rect x="366" y="282" width="230" height="246" rx="20" fill="#606060"/>
</g>
<g filter="url(#filter6_b_246_20)">
<rect x="156" y="356" width="236" height="220" rx="20" fill="#2E34C4"/>
</g>
<rect x="191" y="388" width="163" height="66" rx="10" fill="#212475"/>
<rect x="191" y="466" width="163" height="9" fill="#212475"/>
<rect x="191" y="487" width="163" height="9" fill="#212475"/>
<rect x="191" y="508" width="163" height="9" fill="#212475"/>
<rect x="191" y="529" width="163" height="9" fill="#212475"/>
<rect x="399" y="330" width="163" height="66" rx="10" fill="#8B8B8B"/>
<rect x="399" y="408" width="163" height="9" fill="#8B8B8B"/>
<rect x="399" y="429" width="163" height="9" fill="#8B8B8B"/>
<rect x="399" y="450" width="163" height="9" fill="#8B8B8B"/>
<rect x="399" y="471" width="163" height="9" fill="#8B8B8B"/>
<g filter="url(#filter7_b_246_20)">
<rect x="243" y="437" width="236" height="220" rx="20" fill="url(#paint1_linear_246_20)"/>
</g>
<rect x="279" y="476" width="163" height="66" rx="10" fill="#024F6A"/>
<rect x="272" y="270" width="82" height="66" rx="10" fill="#B56335"/>
<circle cx="399" cy="508" r="20" fill="#03475F"/>
<rect x="279" y="554" width="80" height="66" rx="10" fill="#024F6A"/>
<rect x="368" y="555" width="74" height="11" fill="#024F6A"/>
<rect x="368" y="574" width="74" height="11" fill="#024F6A"/>
<rect x="368" y="593" width="74" height="11" fill="#024F6A"/>
<rect x="368" y="612" width="74" height="11" fill="#024F6A"/>
<defs>
<filter id="filter0_dd_246_20" x="72.707" y="126.684" width="144" height="144" filterUnits="userSpaceOnUse" color-interpolation-filters="sRGB">
<feFlood flood-opacity="0" result="BackgroundImageFix"/>
<feColorMatrix in="SourceAlpha" type="matrix" values="0 0 0 0 0 0 0 0 0 0 0 0 0 0 0 0 0 0 127 0" result="hardAlpha"/>
<feOffset dy="4"/>
<feGaussianBlur stdDeviation="2"/>
<feComposite in2="hardAlpha" operator="out"/>
<feColorMatrix type="matrix" values="0 0 0 0 0 0 0 0 0 0 0 0 0 0 0 0 0 0 0.25 0"/>
<feBlend mode="normal" in2="BackgroundImageFix" result="effect1_dropShadow_246_20"/>
<feColorMatrix in="SourceAlpha" type="matrix" values="0 0 0 0 0 0 0 0 0 0 0 0 0 0 0 0 0 0 127 0" result="hardAlpha"/>
<feOffset dx="10" dy="10"/>
<feGaussianBlur stdDeviation="12.5"/>
<feComposite in2="hardAlpha" operator="out"/>
<feColorMatrix type="matrix" values="0 0 0 0 0.127474 0 0 0 0 0.127474 0 0 0 0 0.127474 0 0 0 0.53 0"/>
<feBlend mode="normal" in2="effect1_dropShadow_246_20" result="effect2_dropShadow_246_20"/>
<feBlend mode="normal" in="SourceGraphic" in2="effect2_dropShadow_246_20" result="shape"/>
</filter>
<filter id="filter1_dd_246_20" x="3.86572" y="339.228" width="144.01" height="144.01" filterUnits="userSpaceOnUse" color-interpolation-filters="sRGB">
<feFlood flood-opacity="0" result="BackgroundImageFix"/>
<feColorMatrix in="SourceAlpha" type="matrix" values="0 0 0 0 0 0 0 0 0 0 0 0 0 0 0 0 0 0 127 0" result="hardAlpha"/>
<feOffset dy="4"/>
<feGaussianBlur stdDeviation="2"/>
<feComposite in2="hardAlpha" operator="out"/>
<feColorMatrix type="matrix" values="0 0 0 0 0 0 0 0 0 0 0 0 0 0 0 0 0 0 0.25 0"/>
<feBlend mode="normal" in2="BackgroundImageFix" result="effect1_dropShadow_246_20"/>
<feColorMatrix in="SourceAlpha" type="matrix" values="0 0 0 0 0 0 0 0 0 0 0 0 0 0 0 0 0 0 127 0" result="hardAlpha"/>
<feOffset dx="10" dy="10"/>
<feGaussianBlur stdDeviation="12.5"/>
<feComposite in2="hardAlpha" operator="out"/>
<feColorMatrix type="matrix" values="0 0 0 0 0.127474 0 0 0 0 0.127474 0 0 0 0 0.127474 0 0 0 0.53 0"/>
<feBlend mode="normal" in2="effect1_dropShadow_246_20" result="effect2_dropShadow_246_20"/>
<feBlend mode="normal" in="SourceGraphic" in2="effect2_dropShadow_246_20" result="shape"/>
</filter>
<filter id="filter2_dd_246_20" x="258.707" y="12.6838" width="144" height="144" filterUnits="userSpaceOnUse" color-interpolation-filters="sRGB">
<feFlood flood-opacity="0" result="BackgroundImageFix"/>
<feColorMatrix in="SourceAlpha" type="matrix" values="0 0 0 0 0 0 0 0 0 0 0 0 0 0 0 0 0 0 127 0" result="hardAlpha"/>
<feOffset dy="4"/>
<feGaussianBlur stdDeviation="2"/>
<feComposite in2="hardAlpha" operator="out"/>
<feColorMatrix type="matrix" values="0 0 0 0 0 0 0 0 0 0 0 0 0 0 0 0 0 0 0.25 0"/>
<feBlend mode="normal" in2="BackgroundImageFix" result="effect1_dropShadow_246_20"/>
<feColorMatrix in="SourceAlpha" type="matrix" values="0 0 0 0 0 0 0 0 0 0 0 0 0 0 0 0 0 0 127 0" result="hardAlpha"/>
<feOffset dx="10" dy="10"/>
<feGaussianBlur stdDeviation="12.5"/>
<feComposite in2="hardAlpha" operator="out"/>
<feColorMatrix type="matrix" values="0 0 0 0 0.127474 0 0 0 0 0.127474 0 0 0 0 0.127474 0 0 0 0.53 0"/>
<feBlend mode="normal" in2="effect1_dropShadow_246_20" result="effect2_dropShadow_246_20"/>
<feBlend mode="normal" in="SourceGraphic" in2="effect2_dropShadow_246_20" result="shape"/>
</filter>
<filter id="filter3_dd_246_20" x="601" y="254" width="144" height="144" filterUnits="userSpaceOnUse" color-interpolation-filters="sRGB">
<feFlood flood-opacity="0" result="BackgroundImageFix"/>
<feColorMatrix in="SourceAlpha" type="matrix" values="0 0 0 0 0 0 0 0 0 0 0 0 0 0 0 0 0 0 127 0" result="hardAlpha"/>
<feOffset dy="4"/>
<feGaussianBlur stdDeviation="2"/>
<feComposite in2="hardAlpha" operator="out"/>
<feColorMatrix type="matrix" values="0 0 0 0 0 0 0 0 0 0 0 0 0 0 0 0 0 0 0.25 0"/>
<feBlend mode="normal" in2="BackgroundImageFix" result="effect1_dropShadow_246_20"/>
<feColorMatrix in="SourceAlpha" type="matrix" values="0 0 0 0 0 0 0 0 0 0 0 0 0 0 0 0 0 0 127 0" result="hardAlpha"/>
<feOffset dx="10" dy="10"/>
<feGaussianBlur stdDeviation="12.5"/>
<feComposite in2="hardAlpha" operator="out"/>
<feColorMatrix type="matrix" values="0 0 0 0 0.127474 0 0 0 0 0.127474 0 0 0 0 0.127474 0 0 0 0.53 0"/>
<feBlend mode="normal" in2="effect1_dropShadow_246_20" result="effect2_dropShadow_246_20"/>
<feBlend mode="normal" in="SourceGraphic" in2="effect2_dropShadow_246_20" result="shape"/>
</filter>
<filter id="filter4_dd_246_20" x="472.707" y="59.6838" width="144" height="144" filterUnits="userSpaceOnUse" color-interpolation-filters="sRGB">
<feFlood flood-opacity="0" result="BackgroundImageFix"/>
<feColorMatrix in="SourceAlpha" type="matrix" values="0 0 0 0 0 0 0 0 0 0 0 0 0 0 0 0 0 0 127 0" result="hardAlpha"/>
<feOffset dy="4"/>
<feGaussianBlur stdDeviation="2"/>
<feComposite in2="hardAlpha" operator="out"/>
<feColorMatrix type="matrix" values="0 0 0 0 0 0 0 0 0 0 0 0 0 0 0 0 0 0 0.25 0"/>
<feBlend mode="normal" in2="BackgroundImageFix" result="effect1_dropShadow_246_20"/>
<feColorMatrix in="SourceAlpha" type="matrix" values="0 0 0 0 0 0 0 0 0 0 0 0 0 0 0 0 0 0 127 0" result="hardAlpha"/>
<feOffset dx="10" dy="10"/>
<feGaussianBlur stdDeviation="12.5"/>
<feComposite in2="hardAlpha" operator="out"/>
<feColorMatrix type="matrix" values="0 0 0 0 0.127474 0 0 0 0 0.127474 0 0 0 0 0.127474 0 0 0 0.53 0"/>
<feBlend mode="normal" in2="effect1_dropShadow_246_20" result="effect2_dropShadow_246_20"/>
<feBlend mode="normal" in="SourceGraphic" in2="effect2_dropShadow_246_20" result="shape"/>
</filter>
<filter id="filter5_b_246_20" x="66" y="-18" width="830" height="846" filterUnits="userSpaceOnUse" color-interpolation-filters="sRGB">
<feFlood flood-opacity="0" result="BackgroundImageFix"/>
<feGaussianBlur in="BackgroundImageFix" stdDeviation="150"/>
<feComposite in2="SourceAlpha" operator="in" result="effect1_backgroundBlur_246_20"/>
<feBlend mode="normal" in="SourceGraphic" in2="effect1_backgroundBlur_246_20" result="shape"/>
</filter>
<filter id="filter6_b_246_20" x="-144" y="56" width="836" height="820" filterUnits="userSpaceOnUse" color-interpolation-filters="sRGB">
<feFlood flood-opacity="0" result="BackgroundImageFix"/>
<feGaussianBlur in="BackgroundImageFix" stdDeviation="150"/>
<feComposite in2="SourceAlpha" operator="in" result="effect1_backgroundBlur_246_20"/>
<feBlend mode="normal" in="SourceGraphic" in2="effect1_backgroundBlur_246_20" result="shape"/>
</filter>
<filter id="filter7_b_246_20" x="-57" y="137" width="836" height="820" filterUnits="userSpaceOnUse" color-interpolation-filters="sRGB">
<feFlood flood-opacity="0" result="BackgroundImageFix"/>
<feGaussianBlur in="BackgroundImageFix" stdDeviation="150"/>
<feComposite in2="SourceAlpha" operator="in" result="effect1_backgroundBlur_246_20"/>
<feBlend mode="normal" in="SourceGraphic" in2="effect1_backgroundBlur_246_20" result="shape"/>
</filter>
<linearGradient id="paint0_linear_246_20" x1="356.707" y1="95.6838" x2="356.707" y2="533.963" gradientUnits="userSpaceOnUse">
<stop stop-color="#1E2326"/>
<stop offset="0.0001" stop-color="#1E2326"/>
<stop offset="1" stop-color="#3C4246"/>
</linearGradient>
<linearGradient id="paint1_linear_246_20" x1="361" y1="437" x2="361" y2="657" gradientUnits="userSpaceOnUse">
<stop stop-color="#018BBA"/>
<stop offset="1" stop-color="#016A8E" stop-opacity="0.54"/>
</linearGradient>
<clipPath id="clip0_246_20">
<rect width="71" height="71" fill="white" transform="translate(31 366)"/>
</clipPath>
</defs>
</svg>
