<svg width="693" height="844" viewBox="0 0 693 844" fill="none" xmlns="http://www.w3.org/2000/svg">
<g filter="url(#filter0_ii_260_23)">
<path fill-rule="evenodd" clip-rule="evenodd" d="M146.404 166.007C113.109 145.015 69.7377 168.942 69.7377 208.303V514.044C69.7377 553.404 113.109 577.332 146.404 556.339L388.868 403.469C419.979 383.853 419.979 338.493 388.868 318.878L146.404 166.007ZM248.82 361.173C225.015 341.223 196.762 326.863 166.529 319.454C160.758 346.924 160.758 375.423 166.529 402.893C196.762 395.484 225.015 381.123 248.82 361.173Z" fill="#1E2326"/>
</g>
<g filter="url(#filter1_ii_260_23)">
<path fill-rule="evenodd" clip-rule="evenodd" d="M369.405 8.61493C336.12 -12.5822 292.548 11.3273 292.548 50.7892V355.558C292.548 395.02 336.12 418.929 369.405 397.732L608.692 245.348C639.549 225.698 639.549 180.649 608.692 160.999L369.405 8.61493ZM472.212 203.173C447.52 182.325 417.993 167.516 386.416 160.275C380.308 188.501 380.308 217.846 386.416 246.072C417.993 238.831 447.52 224.022 472.212 203.173Z" fill="#1E2326"/>
</g>
<g filter="url(#filter2_ii_260_23)">
<path fill-rule="evenodd" clip-rule="evenodd" d="M356.405 8.00745C323.11 -12.9847 279.738 10.9425 279.738 50.3027V356.044C279.738 395.404 323.11 419.332 356.405 398.339L598.868 245.469C629.979 225.853 629.979 180.493 598.868 160.878L356.405 8.00745ZM458.82 203.173C435.015 183.223 406.762 168.863 376.53 161.454C370.759 188.924 370.759 217.423 376.53 244.893C406.762 237.484 435.015 223.123 458.82 203.173Z" fill="#1E2326"/>
</g>
<g filter="url(#filter3_ii_260_23)">
<path fill-rule="evenodd" clip-rule="evenodd" d="M159.405 166.615C126.12 145.418 82.5476 169.327 82.5476 208.789V513.558C82.5476 553.02 126.12 576.929 159.405 555.732L398.692 403.348C429.549 383.698 429.549 338.649 398.692 318.999L159.405 166.615ZM262.212 361.173C237.52 340.325 207.993 325.516 176.416 318.275C170.308 346.501 170.308 375.846 176.416 404.072C207.993 396.831 237.52 382.022 262.212 361.173Z" fill="#1E2326"/>
</g>
<g filter="url(#filter4_ii_260_23)">
<path fill-rule="evenodd" clip-rule="evenodd" d="M90.4052 351.806C57.1197 330.609 13.5476 354.519 13.5476 393.981V698.749C13.5476 738.211 57.1197 762.121 90.4052 740.923L329.692 588.539C360.549 568.889 360.549 523.841 329.692 504.191L90.4052 351.806ZM193.212 546.365C168.52 525.517 138.993 510.708 107.416 503.466C101.308 531.692 101.308 561.037 107.416 589.264C138.993 582.022 168.52 567.213 193.212 546.365Z" fill="#1E2326"/>
</g>
<g filter="url(#filter5_ii_260_23)">
<path fill-rule="evenodd" clip-rule="evenodd" d="M77.4046 351.199C44.1096 330.207 0.737915 354.134 0.737915 393.494V699.236C0.737915 738.596 44.1096 762.523 77.4046 741.531L319.868 588.66C350.979 569.045 350.979 523.685 319.868 504.07L77.4046 351.199ZM179.82 546.365C156.015 526.415 127.762 512.054 97.5297 504.645C91.7587 532.115 91.7587 560.614 97.5297 588.085C127.762 580.675 156.015 566.315 179.82 546.365Z" fill="#1E2326"/>
</g>
<g filter="url(#filter6_ii_260_23)">
<path fill-rule="evenodd" clip-rule="evenodd" d="M291.437 445.615C258.151 424.418 214.579 448.327 214.579 487.789L214.579 792.558C214.579 832.02 258.151 855.929 291.437 834.732L530.724 682.348C561.581 662.698 561.581 617.649 530.724 597.999L291.437 445.615ZM394.244 640.173C369.552 619.325 340.025 604.516 308.448 597.275C302.339 625.501 302.339 654.846 308.448 683.072C340.025 675.831 369.552 661.022 394.244 640.173Z" fill="#1E2326"/>
</g>
<g filter="url(#filter7_ii_260_23)">
<path fill-rule="evenodd" clip-rule="evenodd" d="M278.436 445.007C245.141 424.015 201.77 447.942 201.77 487.303L201.77 793.044C201.77 832.404 245.141 856.332 278.436 835.339L520.9 682.469C552.011 662.853 552.011 617.493 520.9 597.878L278.436 445.007ZM380.852 640.173C357.047 620.223 328.794 605.863 298.561 598.454C292.79 625.924 292.79 654.423 298.561 681.893C328.794 674.484 357.047 660.123 380.852 640.173Z" fill="#1E2326"/>
</g>
<g filter="url(#filter8_ii_260_23)">
<path fill-rule="evenodd" clip-rule="evenodd" d="M430.437 221.615C397.151 200.418 353.579 224.327 353.579 263.789V568.558C353.579 608.02 397.151 631.929 430.437 610.732L669.724 458.348C700.581 438.698 700.581 393.649 669.724 373.999L430.437 221.615ZM533.244 416.173C508.552 395.325 479.025 380.516 447.448 373.275C441.339 401.501 441.339 430.846 447.448 459.072C479.025 451.831 508.552 437.022 533.244 416.173Z" fill="#1E2326"/>
</g>
<g filter="url(#filter9_ii_260_23)">
<path fill-rule="evenodd" clip-rule="evenodd" d="M417.436 221.007C384.141 200.015 340.77 223.942 340.77 263.303V569.044C340.77 608.404 384.141 632.332 417.436 611.339L659.9 458.469C691.011 438.853 691.011 393.493 659.9 373.878L417.436 221.007ZM519.852 416.173C496.047 396.223 467.794 381.863 437.561 374.454C431.79 401.924 431.79 430.423 437.561 457.893C467.794 450.484 496.047 436.123 519.852 416.173Z" fill="#1E2326"/>
</g>
<defs>
<filter id="filter0_ii_260_23" x="49.7378" y="138.222" width="382.463" height="445.902" filterUnits="userSpaceOnUse" color-interpolation-filters="sRGB">
<feFlood flood-opacity="0" result="BackgroundImageFix"/>
<feBlend mode="normal" in="SourceGraphic" in2="BackgroundImageFix" result="shape"/>
<feColorMatrix in="SourceAlpha" type="matrix" values="0 0 0 0 0 0 0 0 0 0 0 0 0 0 0 0 0 0 127 0" result="hardAlpha"/>
<feOffset dx="20" dy="-20"/>
<feGaussianBlur stdDeviation="20"/>
<feComposite in2="hardAlpha" operator="arithmetic" k2="-1" k3="1"/>
<feColorMatrix type="matrix" values="0 0 0 0 0.261076 0 0 0 0 0.288008 0 0 0 0 0.304167 0 0 0 1 0"/>
<feBlend mode="normal" in2="shape" result="effect1_innerShadow_260_23"/>
<feColorMatrix in="SourceAlpha" type="matrix" values="0 0 0 0 0 0 0 0 0 0 0 0 0 0 0 0 0 0 127 0" result="hardAlpha"/>
<feOffset dx="-20" dy="20"/>
<feGaussianBlur stdDeviation="20"/>
<feComposite in2="hardAlpha" operator="arithmetic" k2="-1" k3="1"/>
<feColorMatrix type="matrix" values="0 0 0 0 0.140729 0 0 0 0 0.162148 0 0 0 0 0.175 0 0 0 1 0"/>
<feBlend mode="normal" in2="effect1_innerShadow_260_23" result="effect2_innerShadow_260_23"/>
</filter>
<filter id="filter1_ii_260_23" x="272.548" y="-19.292" width="379.287" height="444.931" filterUnits="userSpaceOnUse" color-interpolation-filters="sRGB">
<feFlood flood-opacity="0" result="BackgroundImageFix"/>
<feBlend mode="normal" in="SourceGraphic" in2="BackgroundImageFix" result="shape"/>
<feColorMatrix in="SourceAlpha" type="matrix" values="0 0 0 0 0 0 0 0 0 0 0 0 0 0 0 0 0 0 127 0" result="hardAlpha"/>
<feOffset dx="20" dy="-20"/>
<feGaussianBlur stdDeviation="20"/>
<feComposite in2="hardAlpha" operator="arithmetic" k2="-1" k3="1"/>
<feColorMatrix type="matrix" values="0 0 0 0 0.342708 0 0 0 0 0.401953 0 0 0 0 0.4375 0 0 0 1 0"/>
<feBlend mode="normal" in2="shape" result="effect1_innerShadow_260_23"/>
<feColorMatrix in="SourceAlpha" type="matrix" values="0 0 0 0 0 0 0 0 0 0 0 0 0 0 0 0 0 0 127 0" result="hardAlpha"/>
<feOffset dx="-20" dy="20"/>
<feGaussianBlur stdDeviation="20"/>
<feComposite in2="hardAlpha" operator="arithmetic" k2="-1" k3="1"/>
<feColorMatrix type="matrix" values="0 0 0 0 0.123368 0 0 0 0 0.145221 0 0 0 0 0.158333 0 0 0 1 0"/>
<feBlend mode="normal" in2="effect1_innerShadow_260_23" result="effect2_innerShadow_260_23"/>
</filter>
<filter id="filter2_ii_260_23" x="259.738" y="-19.7778" width="382.464" height="445.902" filterUnits="userSpaceOnUse" color-interpolation-filters="sRGB">
<feFlood flood-opacity="0" result="BackgroundImageFix"/>
<feBlend mode="normal" in="SourceGraphic" in2="BackgroundImageFix" result="shape"/>
<feColorMatrix in="SourceAlpha" type="matrix" values="0 0 0 0 0 0 0 0 0 0 0 0 0 0 0 0 0 0 127 0" result="hardAlpha"/>
<feOffset dx="20" dy="-20"/>
<feGaussianBlur stdDeviation="20"/>
<feComposite in2="hardAlpha" operator="arithmetic" k2="-1" k3="1"/>
<feColorMatrix type="matrix" values="0 0 0 0 0.261076 0 0 0 0 0.288008 0 0 0 0 0.304167 0 0 0 1 0"/>
<feBlend mode="normal" in2="shape" result="effect1_innerShadow_260_23"/>
<feColorMatrix in="SourceAlpha" type="matrix" values="0 0 0 0 0 0 0 0 0 0 0 0 0 0 0 0 0 0 127 0" result="hardAlpha"/>
<feOffset dx="-20" dy="20"/>
<feGaussianBlur stdDeviation="20"/>
<feComposite in2="hardAlpha" operator="arithmetic" k2="-1" k3="1"/>
<feColorMatrix type="matrix" values="0 0 0 0 0.140729 0 0 0 0 0.162148 0 0 0 0 0.175 0 0 0 1 0"/>
<feBlend mode="normal" in2="effect1_innerShadow_260_23" result="effect2_innerShadow_260_23"/>
</filter>
<filter id="filter3_ii_260_23" x="62.5476" y="138.708" width="379.287" height="444.931" filterUnits="userSpaceOnUse" color-interpolation-filters="sRGB">
<feFlood flood-opacity="0" result="BackgroundImageFix"/>
<feBlend mode="normal" in="SourceGraphic" in2="BackgroundImageFix" result="shape"/>
<feColorMatrix in="SourceAlpha" type="matrix" values="0 0 0 0 0 0 0 0 0 0 0 0 0 0 0 0 0 0 127 0" result="hardAlpha"/>
<feOffset dx="20" dy="-20"/>
<feGaussianBlur stdDeviation="20"/>
<feComposite in2="hardAlpha" operator="arithmetic" k2="-1" k3="1"/>
<feColorMatrix type="matrix" values="0 0 0 0 0.342708 0 0 0 0 0.401953 0 0 0 0 0.4375 0 0 0 1 0"/>
<feBlend mode="normal" in2="shape" result="effect1_innerShadow_260_23"/>
<feColorMatrix in="SourceAlpha" type="matrix" values="0 0 0 0 0 0 0 0 0 0 0 0 0 0 0 0 0 0 127 0" result="hardAlpha"/>
<feOffset dx="-20" dy="20"/>
<feGaussianBlur stdDeviation="20"/>
<feComposite in2="hardAlpha" operator="arithmetic" k2="-1" k3="1"/>
<feColorMatrix type="matrix" values="0 0 0 0 0.123368 0 0 0 0 0.145221 0 0 0 0 0.158333 0 0 0 1 0"/>
<feBlend mode="normal" in2="effect1_innerShadow_260_23" result="effect2_innerShadow_260_23"/>
</filter>
<filter id="filter4_ii_260_23" x="-6.45239" y="323.899" width="379.287" height="444.931" filterUnits="userSpaceOnUse" color-interpolation-filters="sRGB">
<feFlood flood-opacity="0" result="BackgroundImageFix"/>
<feBlend mode="normal" in="SourceGraphic" in2="BackgroundImageFix" result="shape"/>
<feColorMatrix in="SourceAlpha" type="matrix" values="0 0 0 0 0 0 0 0 0 0 0 0 0 0 0 0 0 0 127 0" result="hardAlpha"/>
<feOffset dx="20" dy="-20"/>
<feGaussianBlur stdDeviation="20"/>
<feComposite in2="hardAlpha" operator="arithmetic" k2="-1" k3="1"/>
<feColorMatrix type="matrix" values="0 0 0 0 0.342708 0 0 0 0 0.401953 0 0 0 0 0.4375 0 0 0 1 0"/>
<feBlend mode="normal" in2="shape" result="effect1_innerShadow_260_23"/>
<feColorMatrix in="SourceAlpha" type="matrix" values="0 0 0 0 0 0 0 0 0 0 0 0 0 0 0 0 0 0 127 0" result="hardAlpha"/>
<feOffset dx="-20" dy="20"/>
<feGaussianBlur stdDeviation="20"/>
<feComposite in2="hardAlpha" operator="arithmetic" k2="-1" k3="1"/>
<feColorMatrix type="matrix" values="0 0 0 0 0.123368 0 0 0 0 0.145221 0 0 0 0 0.158333 0 0 0 1 0"/>
<feBlend mode="normal" in2="effect1_innerShadow_260_23" result="effect2_innerShadow_260_23"/>
</filter>
<filter id="filter5_ii_260_23" x="-19.2622" y="323.414" width="382.464" height="445.902" filterUnits="userSpaceOnUse" color-interpolation-filters="sRGB">
<feFlood flood-opacity="0" result="BackgroundImageFix"/>
<feBlend mode="normal" in="SourceGraphic" in2="BackgroundImageFix" result="shape"/>
<feColorMatrix in="SourceAlpha" type="matrix" values="0 0 0 0 0 0 0 0 0 0 0 0 0 0 0 0 0 0 127 0" result="hardAlpha"/>
<feOffset dx="20" dy="-20"/>
<feGaussianBlur stdDeviation="20"/>
<feComposite in2="hardAlpha" operator="arithmetic" k2="-1" k3="1"/>
<feColorMatrix type="matrix" values="0 0 0 0 0.261076 0 0 0 0 0.288008 0 0 0 0 0.304167 0 0 0 1 0"/>
<feBlend mode="normal" in2="shape" result="effect1_innerShadow_260_23"/>
<feColorMatrix in="SourceAlpha" type="matrix" values="0 0 0 0 0 0 0 0 0 0 0 0 0 0 0 0 0 0 127 0" result="hardAlpha"/>
<feOffset dx="-20" dy="20"/>
<feGaussianBlur stdDeviation="20"/>
<feComposite in2="hardAlpha" operator="arithmetic" k2="-1" k3="1"/>
<feColorMatrix type="matrix" values="0 0 0 0 0.140729 0 0 0 0 0.162148 0 0 0 0 0.175 0 0 0 1 0"/>
<feBlend mode="normal" in2="effect1_innerShadow_260_23" result="effect2_innerShadow_260_23"/>
</filter>
<filter id="filter6_ii_260_23" x="194.579" y="417.708" width="379.287" height="444.931" filterUnits="userSpaceOnUse" color-interpolation-filters="sRGB">
<feFlood flood-opacity="0" result="BackgroundImageFix"/>
<feBlend mode="normal" in="SourceGraphic" in2="BackgroundImageFix" result="shape"/>
<feColorMatrix in="SourceAlpha" type="matrix" values="0 0 0 0 0 0 0 0 0 0 0 0 0 0 0 0 0 0 127 0" result="hardAlpha"/>
<feOffset dx="20" dy="-20"/>
<feGaussianBlur stdDeviation="20"/>
<feComposite in2="hardAlpha" operator="arithmetic" k2="-1" k3="1"/>
<feColorMatrix type="matrix" values="0 0 0 0 0.342708 0 0 0 0 0.401953 0 0 0 0 0.4375 0 0 0 1 0"/>
<feBlend mode="normal" in2="shape" result="effect1_innerShadow_260_23"/>
<feColorMatrix in="SourceAlpha" type="matrix" values="0 0 0 0 0 0 0 0 0 0 0 0 0 0 0 0 0 0 127 0" result="hardAlpha"/>
<feOffset dx="-20" dy="20"/>
<feGaussianBlur stdDeviation="20"/>
<feComposite in2="hardAlpha" operator="arithmetic" k2="-1" k3="1"/>
<feColorMatrix type="matrix" values="0 0 0 0 0.123368 0 0 0 0 0.145221 0 0 0 0 0.158333 0 0 0 1 0"/>
<feBlend mode="normal" in2="effect1_innerShadow_260_23" result="effect2_innerShadow_260_23"/>
</filter>
<filter id="filter7_ii_260_23" x="181.77" y="417.222" width="382.464" height="445.902" filterUnits="userSpaceOnUse" color-interpolation-filters="sRGB">
<feFlood flood-opacity="0" result="BackgroundImageFix"/>
<feBlend mode="normal" in="SourceGraphic" in2="BackgroundImageFix" result="shape"/>
<feColorMatrix in="SourceAlpha" type="matrix" values="0 0 0 0 0 0 0 0 0 0 0 0 0 0 0 0 0 0 127 0" result="hardAlpha"/>
<feOffset dx="20" dy="-20"/>
<feGaussianBlur stdDeviation="20"/>
<feComposite in2="hardAlpha" operator="arithmetic" k2="-1" k3="1"/>
<feColorMatrix type="matrix" values="0 0 0 0 0.261076 0 0 0 0 0.288008 0 0 0 0 0.304167 0 0 0 1 0"/>
<feBlend mode="normal" in2="shape" result="effect1_innerShadow_260_23"/>
<feColorMatrix in="SourceAlpha" type="matrix" values="0 0 0 0 0 0 0 0 0 0 0 0 0 0 0 0 0 0 127 0" result="hardAlpha"/>
<feOffset dx="-20" dy="20"/>
<feGaussianBlur stdDeviation="20"/>
<feComposite in2="hardAlpha" operator="arithmetic" k2="-1" k3="1"/>
<feColorMatrix type="matrix" values="0 0 0 0 0.140729 0 0 0 0 0.162148 0 0 0 0 0.175 0 0 0 1 0"/>
<feBlend mode="normal" in2="effect1_innerShadow_260_23" result="effect2_innerShadow_260_23"/>
</filter>
<filter id="filter8_ii_260_23" x="333.579" y="193.708" width="379.287" height="444.931" filterUnits="userSpaceOnUse" color-interpolation-filters="sRGB">
<feFlood flood-opacity="0" result="BackgroundImageFix"/>
<feBlend mode="normal" in="SourceGraphic" in2="BackgroundImageFix" result="shape"/>
<feColorMatrix in="SourceAlpha" type="matrix" values="0 0 0 0 0 0 0 0 0 0 0 0 0 0 0 0 0 0 127 0" result="hardAlpha"/>
<feOffset dx="20" dy="-20"/>
<feGaussianBlur stdDeviation="20"/>
<feComposite in2="hardAlpha" operator="arithmetic" k2="-1" k3="1"/>
<feColorMatrix type="matrix" values="0 0 0 0 0.342708 0 0 0 0 0.401953 0 0 0 0 0.4375 0 0 0 1 0"/>
<feBlend mode="normal" in2="shape" result="effect1_innerShadow_260_23"/>
<feColorMatrix in="SourceAlpha" type="matrix" values="0 0 0 0 0 0 0 0 0 0 0 0 0 0 0 0 0 0 127 0" result="hardAlpha"/>
<feOffset dx="-20" dy="20"/>
<feGaussianBlur stdDeviation="20"/>
<feComposite in2="hardAlpha" operator="arithmetic" k2="-1" k3="1"/>
<feColorMatrix type="matrix" values="0 0 0 0 0.123368 0 0 0 0 0.145221 0 0 0 0 0.158333 0 0 0 1 0"/>
<feBlend mode="normal" in2="effect1_innerShadow_260_23" result="effect2_innerShadow_260_23"/>
</filter>
<filter id="filter9_ii_260_23" x="320.77" y="193.222" width="382.464" height="445.902" filterUnits="userSpaceOnUse" color-interpolation-filters="sRGB">
<feFlood flood-opacity="0" result="BackgroundImageFix"/>
<feBlend mode="normal" in="SourceGraphic" in2="BackgroundImageFix" result="shape"/>
<feColorMatrix in="SourceAlpha" type="matrix" values="0 0 0 0 0 0 0 0 0 0 0 0 0 0 0 0 0 0 127 0" result="hardAlpha"/>
<feOffset dx="20" dy="-20"/>
<feGaussianBlur stdDeviation="20"/>
<feComposite in2="hardAlpha" operator="arithmetic" k2="-1" k3="1"/>
<feColorMatrix type="matrix" values="0 0 0 0 0.261076 0 0 0 0 0.288008 0 0 0 0 0.304167 0 0 0 1 0"/>
<feBlend mode="normal" in2="shape" result="effect1_innerShadow_260_23"/>
<feColorMatrix in="SourceAlpha" type="matrix" values="0 0 0 0 0 0 0 0 0 0 0 0 0 0 0 0 0 0 127 0" result="hardAlpha"/>
<feOffset dx="-20" dy="20"/>
<feGaussianBlur stdDeviation="20"/>
<feComposite in2="hardAlpha" operator="arithmetic" k2="-1" k3="1"/>
<feColorMatrix type="matrix" values="0 0 0 0 0.140729 0 0 0 0 0.162148 0 0 0 0 0.175 0 0 0 1 0"/>
<feBlend mode="normal" in2="effect1_innerShadow_260_23" result="effect2_innerShadow_260_23"/>
</filter>
</defs>
</svg>
