<svg width="580" height="712" viewBox="0 0 580 712" fill="none" xmlns="http://www.w3.org/2000/svg">
<rect x="213" y="220" width="1" height="370" fill="#B6ADAD"/>
<rect x="306" y="112" width="1" height="600" fill="#B6ADAD"/>
<rect x="403" y="112" width="1" height="549" fill="#B6ADAD"/>
<rect width="1" height="590" transform="matrix(-1 0 0 1 520 0)" fill="#B6ADAD"/>
<rect width="450" height="1" transform="matrix(-1 0 0 1 580 295)" fill="#B6ADAD"/>
<rect x="580" y="428" width="450" height="1" transform="rotate(180 580 428)" fill="#B6ADAD"/>
<rect x="580" y="566" width="450" height="1" transform="rotate(180 580 566)" fill="#B6ADAD"/>
<path d="M238.95 252.7V358H213.3V252.7H238.95ZM318.588 358L283.188 311.5V358H257.538V252.7H283.188V298.9L318.288 252.7H348.438L307.638 304.3L349.938 358H318.588ZM387.778 273.25V294.55H422.128V314.35H387.778V337.45H426.628V358H362.128V252.7H426.628V273.25H387.778Z" fill="url(#paint0_linear_210_5)"/>
<path d="M4.95 512.2C4.95 501.8 7.2 492.55 11.7 484.45C16.2 476.25 22.45 469.9 30.45 465.4C38.55 460.8 47.7 458.5 57.9 458.5C70.4 458.5 81.1 461.8 90 468.4C98.9 475 104.85 484 107.85 495.4H79.65C77.55 491 74.55 487.65 70.65 485.35C66.85 483.05 62.5 481.9 57.6 481.9C49.7 481.9 43.3 484.65 38.4 490.15C33.5 495.65 31.05 503 31.05 512.2C31.05 521.4 33.5 528.75 38.4 534.25C43.3 539.75 49.7 542.5 57.6 542.5C62.5 542.5 66.85 541.35 70.65 539.05C74.55 536.75 77.55 533.4 79.65 529H107.85C104.85 540.4 98.9 549.4 90 556C81.1 562.5 70.4 565.75 57.9 565.75C47.7 565.75 38.55 563.5 30.45 559C22.45 554.4 16.2 548.05 11.7 539.95C7.2 531.85 4.95 522.6 4.95 512.2Z" fill="url(#paint1_linear_210_5)"/>
<path d="M177.258 565L155.358 525.25H149.208V565H123.558V459.7H166.608C174.908 459.7 181.958 461.15 187.758 464.05C193.658 466.95 198.058 470.95 200.958 476.05C203.858 481.05 205.308 486.65 205.308 492.85C205.308 499.85 203.308 506.1 199.308 511.6C195.408 517.1 189.608 521 181.908 523.3L206.208 565H177.258ZM149.208 507.1H165.108C169.808 507.1 173.308 505.95 175.608 503.65C178.008 501.35 179.208 498.1 179.208 493.9C179.208 489.9 178.008 486.75 175.608 484.45C173.308 482.15 169.808 481 165.108 481H149.208V507.1ZM246.609 459.7V522.7C246.609 529 248.159 533.85 251.259 537.25C254.359 540.65 258.909 542.35 264.909 542.35C270.909 542.35 275.509 540.65 278.709 537.25C281.909 533.85 283.509 529 283.509 522.7V459.7H309.159V522.55C309.159 531.95 307.159 539.9 303.159 546.4C299.159 552.9 293.759 557.8 286.959 561.1C280.259 564.4 272.759 566.05 264.459 566.05C256.159 566.05 248.709 564.45 242.109 561.25C235.609 557.95 230.459 553.05 226.659 546.55C222.859 539.95 220.959 531.95 220.959 522.55V459.7H246.609ZM354.471 544H399.771V565H325.371V545.5L370.371 480.7H325.371V459.7H399.771V479.2L354.471 544Z" fill="url(#paint2_linear_210_5)"/>
<defs>
<linearGradient id="paint0_linear_210_5" x1="319" y1="193" x2="319" y2="418" gradientUnits="userSpaceOnUse">
<stop stop-color="#C8C4C4"/>
<stop offset="1" stop-color="#EFEFEF" stop-opacity="0"/>
</linearGradient>
<linearGradient id="paint1_linear_210_5" x1="204" y1="400" x2="204" y2="625" gradientUnits="userSpaceOnUse">
<stop stop-color="#C8C4C4" stop-opacity="0.65"/>
<stop offset="1" stop-color="#EFEFEF" stop-opacity="0"/>
</linearGradient>
<linearGradient id="paint2_linear_210_5" x1="204" y1="400" x2="204" y2="625" gradientUnits="userSpaceOnUse">
<stop stop-color="#C8C4C4"/>
<stop offset="1" stop-color="#EFEFEF" stop-opacity="0"/>
</linearGradient>
</defs>
</svg>
