<svg width="552" height="471" viewBox="0 0 552 471" fill="none" xmlns="http://www.w3.org/2000/svg">
<g clip-path="url(#clip0_37_55)">
<rect width="552" height="471" fill="white"/>
<rect x="60.2351" y="71.938" width="0.725718" height="169.759" fill="black"/>
<rect x="127.727" y="22.3867" width="0.725718" height="275.285" fill="black"/>
<rect x="198.121" y="22.3867" width="0.725718" height="251.886" fill="black"/>
<rect width="0.725718" height="270.697" transform="matrix(-1 0 0 1 283.03 -29)" fill="black"/>
<rect width="326.573" height="0.458809" transform="matrix(-1 0 0 1 326.573 106.349)" fill="black"/>
<rect x="326.574" y="167.371" width="326.573" height="0.458809" transform="rotate(-180 326.574 167.371)" fill="black"/>
<rect x="326.573" y="230.686" width="326.573" height="0.458809" transform="rotate(-180 326.573 230.686)" fill="black"/>
<rect x="42.2351" y="257.938" width="0.725718" height="169.759" fill="black"/>
<rect x="109.727" y="208.387" width="0.725718" height="275.285" fill="black"/>
<rect x="180.121" y="208.387" width="0.725718" height="251.886" fill="black"/>
<rect width="0.725718" height="270.697" transform="matrix(-1 0 0 1 265.03 157)" fill="black"/>
<rect width="326.573" height="0.458809" transform="matrix(-1 0 0 1 308.573 292.349)" fill="black"/>
<rect x="308.574" y="353.371" width="326.573" height="0.458809" transform="rotate(-180 308.574 353.371)" fill="black"/>
<rect x="308.573" y="416.686" width="326.573" height="0.458809" transform="rotate(-180 308.573 416.686)" fill="black"/>
<rect x="369.235" y="29.938" width="0.725718" height="169.759" fill="black"/>
<rect x="436.727" y="-19.6133" width="0.725718" height="275.285" fill="black"/>
<rect x="507.121" y="-19.6133" width="0.725718" height="251.886" fill="black"/>
<rect width="326.573" height="0.458809" transform="matrix(-1 0 0 1 635.573 64.3487)" fill="black"/>
<rect x="635.574" y="125.371" width="326.573" height="0.458809" transform="rotate(-180 635.574 125.371)" fill="black"/>
<rect x="635.573" y="188.686" width="326.573" height="0.458809" transform="rotate(-180 635.573 188.686)" fill="black"/>
<rect x="324.235" y="248.938" width="0.725718" height="169.759" fill="black"/>
<rect x="391.727" y="199.387" width="0.725718" height="275.285" fill="black"/>
<rect x="462.121" y="199.387" width="0.725718" height="251.886" fill="black"/>
<rect width="0.725718" height="270.697" transform="matrix(-1 0 0 1 547.03 148)" fill="black"/>
<rect width="326.573" height="0.458809" transform="matrix(-1 0 0 1 590.573 283.349)" fill="black"/>
<rect x="590.574" y="344.371" width="326.573" height="0.458809" transform="rotate(-180 590.574 344.371)" fill="black"/>
<rect x="590.573" y="407.686" width="326.573" height="0.458809" transform="rotate(-180 590.573 407.686)" fill="black"/>
</g>
<defs>
<clipPath id="clip0_37_55">
<rect width="552" height="471" fill="white"/>
</clipPath>
</defs>
</svg>
